Coordinates
version=1
nRows=18
nColumns=22
inDegrees=yes

Units are S.I. units (second, meters, Newtons, ...)
If the header above contains a line with 'inDegrees', this indicates whether rotational values are in degrees (yes) or radians (no).

endheader
time	pelvis_tilt	pelvis_list	pelvis_rotation	pelvis_tx	pelvis_ty	pelvis_tz	hip_flexion_r	hip_adduction_r	hip_rotation_r	knee_angle_r	ankle_angle_r	subtalar_angle_r	hip_flexion_l	hip_adduction_l	hip_rotation_l	knee_angle_l	ankle_angle_l	subtalar_angle_l	lumbar_extension	lumbar_bending	lumbar_rotation
      1.66000000	      1.20614546	     -1.30835599	    114.28991606	     -0.65125502	      0.90137548	      0.60559810	    -11.40139634	      6.46197345	     12.75894194	    -26.66974899	      8.34773474	     -7.76253049	     31.75769922	     -1.34214698	      9.61378337	    -28.81162829	      1.21775535	     10.46987863	     -5.16295620	     -3.00273183	      4.57832004
      1.67000000	      0.65605601	     -1.59575076	    114.12547621	     -0.65763475	      0.90281303	      0.59556424	    -10.80366642	      5.71986118	     11.25266880	    -28.63662396	      6.00489156	     -6.80627792	     31.12394330	     -0.75868896	      9.06168924	    -29.09545922	      1.37851281	     10.75198558	     -4.92143543	     -3.84293165	      4.23676511
      1.68000000	      0.15594394	     -1.85557737	    113.90517264	     -0.66377529	      0.90440203	      0.58569181	     -9.99253234	      4.96761262	      9.61672885	    -30.84935426	      3.48749254	     -5.73057980	     30.39011559	     -0.27338568	      8.45867846	    -29.19278896	      1.67632797	     10.94367122	     -4.72806529	     -4.60565382	      3.89739805
      1.69000000	     -0.28551051	     -2.09034388	    113.60024677	     -0.66962128	      0.90609012	      0.57606315	     -8.94277118	      4.19353526	      7.94229797	    -33.32242661	      0.86118013	     -4.56683558	     29.58106012	      0.11501459	      7.83483647	    -29.13288261	      2.08784383	     11.02917558	     -4.58411600	     -5.27603632	      3.59897205
      1.70000000	     -0.69044425	     -2.31353649	    113.21822650	     -0.67519105	      0.90780340	      0.56675495	     -7.64810499	      3.35679579	      6.26225442	    -36.04947522	     -1.71516562	     -3.41778234	     28.74142007	      0.44741678	      7.16989815	    -28.97476703	      2.54674314	     10.99237616	     -4.48994607	     -5.87686259	      3.29470163
      1.71000000	     -1.07278601	     -2.52969465	    112.75413700	     -0.68046543	      0.90949206	      0.55779884	     -6.11526950	      2.44526126	      4.65598576	    -39.01245265	     -4.11721489	     -2.33048965	     27.88596011	      0.74692352	      6.47959550	    -28.73854183	      3.01853756	     10.83832428	     -4.44893315	     -6.42675574	      3.00682835
      1.72000000	     -1.45900151	     -2.74042751	    112.20844051	     -0.68548209	      0.91111753	      0.54920944	     -4.37419223	      1.43954963	      3.18435469	    -42.17019561	     -6.22212533	     -1.32623193	     27.02056210	      1.04939168	      5.77242723	    -28.44581333	      3.47362665	     10.58849522	     -4.46885795	     -6.94481848	      2.72706117
      1.73000000	     -1.85106456	     -2.94412117	    111.59208997	     -0.69025703	      0.91264678	      0.54095929	     -2.46081208	      0.37109826	      1.91736794	    -45.44832425	     -7.92913250	     -0.28871510	     26.15321396	      1.36800952	      5.08120899	    -28.11545378	      3.94951676	     10.21927005	     -4.54094669	     -7.43649407	      2.46872581
      1.74000000	     -2.28438841	     -3.13297840	    110.92552723	     -0.69483263	      0.91407365	      0.53299791	     -0.43486730	     -0.76498777	      0.86082539	    -48.77392809	     -9.12778775	      0.70127502	     25.28123958	      1.73145340	      4.36062274	    -27.77489009	      4.37427596	      9.80383709	     -4.68181011	     -7.93784379	      2.18186303
      1.75000000	     -2.75186412	     -3.29691717	    110.22073074	     -0.69922570	      0.91540188	      0.52525023	      1.65729266	     -1.91914213	      0.03713991	    -52.05976201	     -9.78448277	      1.64821543	     24.39688135	      2.13262790	      3.62791900	    -27.42684912	      4.78331721	      9.35708164	     -4.88375630	     -8.44197442	      1.87357786
      1.76000000	     -3.24592072	     -3.42281825	    109.49374476	     -0.70345469	      0.91665452	      0.51764206	      3.76731071	     -3.04722510	     -0.57015187	    -55.22326310	     -9.90651861	      2.45546619	     23.48932258	      2.56150559	      2.89460785	    -27.07379550	      5.18231538	      8.90775796	     -5.14344560	     -8.94317177	      1.54589632
      1.77000000	     -3.77413765	     -3.48930288	    108.76110336	     -0.70754827	      0.91789716	      0.51009069	      5.83046902	     -4.12793358	     -0.99598432	    -58.18686780	     -9.52321104	      2.93376621	     22.52308116	      3.01851774	      2.15414565	    -26.69957913	      5.52743758	      8.57899969	     -5.47431738	     -9.44654154	      1.16905013
      1.78000000	     -4.26841565	     -3.52024100	    108.04811326	     -0.71152751	      0.91905620	      0.50259995	      7.87548615	     -5.08348121	     -1.28032265	    -60.90569073	     -8.77384963	      3.21185283	     21.56842788	      3.45951682	      1.47319409	    -26.35075198	      5.94004784	      8.14285959	     -5.81786752	     -9.89167582	      0.79713000
      1.79000000	     -4.74715381	     -3.47940325	    107.38015738	     -0.71540265	      0.92027236	      0.49507523	      9.80568203	     -5.90661531	     -1.46887020	    -63.30659928	     -7.73290896	      3.15453186	     20.54407688	      3.88464628	      0.83302310	    -25.96317736	      6.32332123	      7.83351767	     -6.21321056	    -10.29356033	      0.33892163
      1.80000000	     -5.18402537	     -3.38734416	    106.77139230	     -0.71921403	      0.92149099	      0.48756138	     11.64327236	     -6.59612469	     -1.62366866	    -65.38350447	     -6.54296468	      2.76957905	     19.50986362	      4.28130227	      0.24892872	    -25.59928880	      6.71241300	      7.49040714	     -6.63332312	    -10.62870199	     -0.14636509
      1.81000000	     -5.55790221	     -3.23443248	    106.23937492	     -0.72296151	      0.92277789	      0.48000364	     13.34440389	     -7.11230488	     -1.75716026	    -67.09395447	     -5.27108331	      2.20310641	     18.42545930	      4.62495437	     -0.24859927	    -25.20217657	      7.09311722	      7.23025123	     -7.07581886	    -10.87262189	     -0.70231618
      1.82000000	     -5.85486172	     -3.03349199	    105.78929066	     -0.72660939	      0.92411548	      0.47242552	     14.91580734	     -7.45259423	     -1.90392206	    -68.43324327	     -3.99043690	      1.52795361	     17.31459268	      4.89929765	     -0.65951466	    -24.78887143	      7.47387786	      7.02840716	     -7.53185687	    -11.02472853	     -1.30555659
      1.83000000	     -6.06941119	     -2.80067417	    105.42252010	     -0.73017180	      0.92547382	      0.46483802	     16.36791182	     -7.61668784	     -2.06570494	    -69.40680098	     -2.75029469	      0.88001269	     16.19081114	      5.09791805	     -0.99749580	    -24.35677294	      7.84708206	      6.89672965	     -7.98064463	    -11.07864322	     -1.95700957
